<svg xmlns="http://www.w3.org/2000/svg" xmlns:xlink="http://www.w3.org/1999/xlink" viewBox="0 0 60 45"><defs><style>.cls-1{fill-rule:evenodd;fill:url(#linear-gradient);}</style><linearGradient id="linear-gradient" x1="17.05" y1="-577.29" x2="39.64" y2="-636.55" gradientTransform="matrix(1, 0, 0, -1, 0, -584)" gradientUnits="userSpaceOnUse"><stop offset="0" stop-color="#09c6f9"/><stop offset="1" stop-color="#045de9"/></linearGradient></defs><g id="Layer_2" data-name="Layer 2"><g id="Layer_1-2" data-name="Layer 1"><path class="cls-1" d="M19.15,0A12.91,12.91,0,0,1,30.6,7a21.36,21.36,0,0,1,8.7-1.84C50.7,5.13,60,14,60,25.07S50.7,45,39.3,45H15.12C6.8,45,0,38.51,0,30.43A14.45,14.45,0,0,1,7.17,18a13.31,13.31,0,0,1-1-5A13,13,0,0,1,19.15,0ZM10.39,13.06a8.86,8.86,0,0,1,8.76-9,8.74,8.74,0,0,1,7.83,5,20.19,20.19,0,0,0-6.23,7.17c-.1.19-.2.39-.29.58l-.56-.19a15.77,15.77,0,0,0-4.78-.74,15.37,15.37,0,0,0-4.1.54A9,9,0,0,1,10.39,13.06Z"/></g></g></svg>