<svg xmlns="http://www.w3.org/2000/svg" xmlns:xlink="http://www.w3.org/1999/xlink" viewBox="0 0 32 32"><defs><style>.cls-1{fill:url(#linear-gradient);}.cls-2{fill:#fff;}</style><linearGradient id="linear-gradient" x1="6.19" y1="-724.7" x2="25.69" y2="-763.06" gradientTransform="matrix(1, 0, 0, -1, 0, -728)" gradientUnits="userSpaceOnUse"><stop offset="0" stop-color="#09c6f9"/><stop offset="1" stop-color="#045de9"/></linearGradient></defs><g id="Layer_2" data-name="Layer 2"><g id="Layer_1-2" data-name="Layer 1"><circle class="cls-1" cx="16" cy="16" r="16"/><path class="cls-2" d="M8.82,20V11.6h5.42v1.24H10.35v2.35H13.5V16.4H10.35V20Zm6.6,0V11.6H18.8a2.89,2.89,0,0,1,2,.61,2,2,0,0,1,.69,1.55A1.81,1.81,0,0,1,21.05,15a2.1,2.1,0,0,1-1,.64,1.94,1.94,0,0,1,1.19.72,2,2,0,0,1,.47,1.32A2.11,2.11,0,0,1,21,19.35a3,3,0,0,1-2,.65ZM17,15.13h1.61a1.51,1.51,0,0,0,1-.3,1.07,1.07,0,0,0,.34-.85,1,1,0,0,0-.34-.83,1.47,1.47,0,0,0-1-.31H17Zm0,3.62h1.72a1.58,1.58,0,0,0,1.05-.31,1.12,1.12,0,0,0,.39-.9,1.15,1.15,0,0,0-.4-.92,1.56,1.56,0,0,0-1.07-.34H17Z"/></g></g></svg>