<svg xmlns="http://www.w3.org/2000/svg" xmlns:xlink="http://www.w3.org/1999/xlink" viewBox="0 0 544 420"><defs><style>.cls-1{fill:none;}.cls-2{clip-path:url(#clip-path);}.cls-3{fill:#66c5ff;}.cls-12,.cls-4,.cls-6{fill:#fff;}.cls-12,.cls-4{isolation:isolate;}.cls-4,.cls-5{opacity:0.6;}.cls-7{fill:#24a7ff;}.cls-8{fill:#3bb0ff;}.cls-9{fill:#3d4959;}.cls-10{fill:#d6e0ea;}.cls-11{fill:#ededed;}.cls-12{opacity:0.2;}.cls-13{fill:#f3f9ff;}.cls-14{fill:#425160;}.cls-15{fill:#41566d;}.cls-16{fill:#e4eff7;}.cls-17{fill:#dde9f2;}.cls-18{fill:#55738e;}</style><clipPath id="clip-path"><rect class="cls-1" width="544" height="420"/></clipPath></defs><g id="Layer_2" data-name="Layer 2"><g id="Layer_1-2" data-name="Layer 1"><g class="cls-2"><path class="cls-3" d="M87.37,109.43a38.86,38.86,0,0,1,58.84-29.2,36.36,36.36,0,0,1,56.86,24.46,38.65,38.65,0,0,1-8.73,76.3H101.41a37.15,37.15,0,0,1-14-71.56Z"/><path class="cls-4" d="M182,139a33,33,0,0,0,0-13.42l-5.25-.75a26.7,26.7,0,0,0-2.56-6.18l3.18-4.25a32.65,32.65,0,0,0-9.47-9.48L163.69,108a27.25,27.25,0,0,0-6.19-2.57l-.73-5.25a33.12,33.12,0,0,0-13.45,0l-.74,5.25a27.25,27.25,0,0,0-6.19,2.57l-4.25-3.18a33.06,33.06,0,0,0-9.48,9.48l3.19,4.27a26.52,26.52,0,0,0-2.56,6.18l-5.26.74a33,33,0,0,0,0,13.43l5.26.76a26,26,0,0,0,2.57,6.16l-3.2,4.28a33.09,33.09,0,0,0,9.48,9.49l4.25-3.2a27.68,27.68,0,0,0,6.19,2.56l.74,5.27a33.07,33.07,0,0,0,13.44,0l.74-5.27a27.68,27.68,0,0,0,6.19-2.56l4.25,3.2a33.09,33.09,0,0,0,9.48-9.49l-3.2-4.26a26.73,26.73,0,0,0,2.57-6.18Zm-32,9.13a15.78,15.78,0,1,1,6-1.2A15.75,15.75,0,0,1,150,148.08Z"/><path class="cls-3" d="M299.17,72.82A38.86,38.86,0,0,1,358,43.63a36.37,36.37,0,0,1,56.87,24.46,38.66,38.66,0,0,1-8.75,76.31H313.2a37.17,37.17,0,0,1-14-71.58Z"/><g class="cls-5"><path class="cls-6" d="M343.84,105.74c0-5.21,2.79-8.12,6.52-8.12s6.53,3,6.53,8.12-2.79,8.13-6.53,8.13S343.84,111,343.84,105.74Zm10.76,0c0-4.06-1.74-6.15-4.24-6.15s-4.25,2.06-4.25,6.15,1.75,6.16,4.25,6.16,4.23-2.06,4.23-6.16Z"/><path class="cls-6" d="M359.08,105.74c0-5.21,2.79-8.12,6.54-8.12s6.52,3,6.52,8.12-2.79,8.13-6.52,8.13S359.08,111,359.08,105.74Zm10.77,0c0-4.06-1.74-6.15-4.23-6.15s-4.25,2.06-4.25,6.15,1.73,6.16,4.25,6.16S369.85,109.84,369.85,105.74Z"/><path class="cls-6" d="M379.23,97.74v16H377v-14h-3.62v-2Z"/><path class="cls-6" d="M382.74,105.74c0-5.21,2.78-8.12,6.53-8.12s6.52,3,6.52,8.12-2.79,8.13-6.52,8.13S382.74,111,382.74,105.74Zm10.76,0c0-4.06-1.73-6.15-4.23-6.15s-4.25,2.06-4.25,6.15,1.74,6.16,4.25,6.16S393.5,109.84,393.5,105.74Z"/><path class="cls-6" d="M402.88,97.74v16h-2.26v-14H397v-2Z"/><path class="cls-6" d="M406.38,105.74c0-5.21,2.78-8.12,6.54-8.12s6.51,3,6.51,8.12-2.79,8.13-6.51,8.13S406.38,111,406.38,105.74Zm10.76,0c0-4.06-1.73-6.15-4.22-6.15s-4.26,2.06-4.26,6.15,1.74,6.16,4.26,6.16S417.14,109.84,417.14,105.74Z"/><path class="cls-6" d="M426.52,97.74v16h-2.26v-14h-3.61v-2Z"/></g><path class="cls-7" d="M178.16,280.86a41.34,41.34,0,0,0-28.88-39.43,38.91,38.91,0,0,0-60.19-27.51,38.94,38.94,0,0,0-60.21,27.51,41.34,41.34,0,0,0,12.43,80.75h96.45a41.32,41.32,0,0,0,40.4-41.32Z"/><path class="cls-8" d="M88.74,213.75a38.93,38.93,0,0,0-59.86,27.74,41.33,41.33,0,0,0,12.43,80.74h29Z"/><path class="cls-9" d="M189.65,302.05H84.28v7.84H189.65Z"/><path class="cls-9" d="M189.65,264H84.28v7.84H189.65Z"/><path class="cls-10" d="M194.37,308H79.11a5.44,5.44,0,0,0-5.43,5.44v24.4a5.43,5.43,0,0,0,5.43,5.43H194.37a5.43,5.43,0,0,0,5.43-5.43v-24.4A5.44,5.44,0,0,0,194.37,308Z"/><path class="cls-11" d="M126,308l-5.74,35.23H79.11a5.43,5.43,0,0,1-5.42-5.42V313.37A5.43,5.43,0,0,1,79.11,308Z"/><path class="cls-9" d="M192,335.46V315.72H81.44v19.74Z"/><path class="cls-7" d="M183.32,325.57a3.44,3.44,0,0,1-.57,1.89,3.4,3.4,0,1,1,.57-1.89Z"/><path class="cls-7" d="M168.64,325.57a2.94,2.94,0,0,1-.49,1.62,2.93,2.93,0,0,1-4.48.44,3,3,0,0,1-.79-1.49,2.87,2.87,0,0,1,.16-1.69,2.91,2.91,0,0,1,5.6,1.12Z"/><path class="cls-6" d="M154.45,325.57a2.94,2.94,0,0,1-.49,1.62,2.89,2.89,0,0,1-1.3,1.07,2.85,2.85,0,0,1-1.68.16,2.82,2.82,0,0,1-1.49-.79,2.91,2.91,0,0,1-.8-1.49,3,3,0,0,1,.16-1.69,2.91,2.91,0,0,1,5.6,1.12Z"/><path class="cls-7" d="M140.26,325.57a2.94,2.94,0,0,1-.49,1.62,2.89,2.89,0,0,1-1.3,1.07,2.85,2.85,0,0,1-1.68.16,2.82,2.82,0,0,1-1.49-.79,2.91,2.91,0,0,1-.8-1.49,3,3,0,0,1,.16-1.69,3,3,0,0,1,2.69-1.8,2.92,2.92,0,0,1,2.91,2.92Z"/><path class="cls-6" d="M126.08,325.57a3,3,0,0,1-.5,1.62,2.89,2.89,0,0,1-1.3,1.07,2.85,2.85,0,0,1-1.68.16,2.82,2.82,0,0,1-1.49-.79,2.91,2.91,0,0,1-.8-1.49,2.92,2.92,0,0,1,1.24-3,2.92,2.92,0,0,1,1.62-.5,2.94,2.94,0,0,1,2.91,2.92Z"/><path class="cls-10" d="M194.37,269.33H79.11a5.43,5.43,0,0,0-5.43,5.43v24.4a5.44,5.44,0,0,0,5.43,5.44H194.37a5.44,5.44,0,0,0,5.43-5.44v-24.4A5.43,5.43,0,0,0,194.37,269.33Z"/><path class="cls-11" d="M132.3,269.33l-5.72,35.22H79.11a5.41,5.41,0,0,1-5.42-5.41V274.75a5.43,5.43,0,0,1,5.42-5.42Z"/><path class="cls-9" d="M192,296.83V277.09H81.44v19.74Z"/><path class="cls-10" d="M194.37,231.3H79.11a5.43,5.43,0,0,0-5.43,5.43v24.4a5.44,5.44,0,0,0,5.43,5.44H194.37a5.44,5.44,0,0,0,5.43-5.44v-24.4A5.43,5.43,0,0,0,194.37,231.3Z"/><path class="cls-11" d="M138.51,231.3l-5.75,35.22H79.11a5.41,5.41,0,0,1-5.42-5.41V236.72a5.43,5.43,0,0,1,5.42-5.42Z"/><path class="cls-9" d="M192.05,258.82V239.08H81.45v19.74Z"/><path class="cls-7" d="M179.92,290.36a3.41,3.41,0,1,0-3.4-3.41A3.41,3.41,0,0,0,179.92,290.36Z"/><path class="cls-7" d="M168.64,287a2.94,2.94,0,0,1-1.79,2.7,2.9,2.9,0,0,1-4-2.13,2.85,2.85,0,0,1,.16-1.68,2.94,2.94,0,0,1,1.08-1.31,2.88,2.88,0,0,1,1.61-.49,3,3,0,0,1,2.06.85,2.91,2.91,0,0,1,.85,2.06Z"/><path class="cls-6" d="M154.45,287a2.91,2.91,0,1,1-4.52-2.42,2.88,2.88,0,0,1,1.61-.49,2.9,2.9,0,0,1,2.91,2.91Z"/><path class="cls-7" d="M140.26,287a2.91,2.91,0,1,1-4.52-2.42,2.88,2.88,0,0,1,1.61-.49,2.9,2.9,0,0,1,2.91,2.91Z"/><path class="cls-6" d="M126.08,287a2.9,2.9,0,0,1-3.48,2.86,2.9,2.9,0,0,1-2.29-2.29,2.85,2.85,0,0,1,.17-1.68,2.91,2.91,0,0,1,5.6,1.11Z"/><path class="cls-7" d="M183.32,248.94a3.38,3.38,0,0,1-2.1,3.14,3.37,3.37,0,0,1-2,.19,3.4,3.4,0,0,1-2.67-2.67,3.37,3.37,0,0,1,.19-2,3.4,3.4,0,0,1,6.54,1.3Z"/><path class="cls-6" d="M168.64,248.94a2.94,2.94,0,0,1-.49,1.62,2.89,2.89,0,0,1-1.3,1.07,3,3,0,0,1-1.69.17,3.06,3.06,0,0,1-1.49-.8,3,3,0,0,1-.79-1.49,2.88,2.88,0,0,1,.16-1.69,2.91,2.91,0,0,1,5.6,1.12Z"/><path class="cls-6" d="M154.45,248.94a2.94,2.94,0,0,1-.49,1.62,2.89,2.89,0,0,1-1.3,1.07,2.94,2.94,0,0,1-1.68.17,3,3,0,0,1-1.49-.8,2.91,2.91,0,0,1-.8-1.49,3,3,0,0,1,.16-1.69,2.91,2.91,0,0,1,5.6,1.12Z"/><path class="cls-7" d="M140.26,248.94a2.94,2.94,0,0,1-.49,1.62,2.89,2.89,0,0,1-1.3,1.07,2.93,2.93,0,0,1-1.68.17,3,3,0,0,1-1.49-.8,2.91,2.91,0,0,1-.8-1.49,3,3,0,0,1,.16-1.69,3,3,0,0,1,2.69-1.8,2.92,2.92,0,0,1,2.91,2.92Z"/><path class="cls-7" d="M126.08,248.94a3,3,0,0,1-.5,1.62,2.89,2.89,0,0,1-1.3,1.07,2.93,2.93,0,0,1-1.68.17,3,3,0,0,1-1.49-.8,2.92,2.92,0,0,1,2.06-5,2.94,2.94,0,0,1,2.91,2.92Z"/><path class="cls-7" d="M346.27,289.6a32.66,32.66,0,0,0-22.79-31.17,30.73,30.73,0,0,0-47.54-21.67,30.71,30.71,0,0,0-47.52,21.67,32.64,32.64,0,0,0,9.8,63.78h76.17a32.6,32.6,0,0,0,31.88-32.61Z"/><path class="cls-8" d="M275.67,236.57a30.72,30.72,0,0,0-47.25,21.89,32.64,32.64,0,0,0,9.8,63.77h23Z"/><path class="cls-9" d="M328.86,358.31H223.49v7.85H328.86Z"/><path class="cls-9" d="M328.86,320.3H223.49v7.84H328.86Z"/><path class="cls-10" d="M333.58,364.22H218.32a5.43,5.43,0,0,0-5.43,5.43v24.4a5.44,5.44,0,0,0,5.43,5.44H333.58a5.44,5.44,0,0,0,5.43-5.44v-24.4A5.44,5.44,0,0,0,333.58,364.22Z"/><path class="cls-11" d="M265.23,364.22l-5.74,35.23H218.33a5.41,5.41,0,0,1-5.41-5.42V369.64a5.41,5.41,0,0,1,5.41-5.42Z"/><path class="cls-9" d="M331.23,391.74V372H220.63v19.74Z"/><path class="cls-7" d="M322.51,381.86a3.39,3.39,0,0,1-5.82,2.33,3.49,3.49,0,0,1-.91-1.74,3.37,3.37,0,0,1,.2-2,3.47,3.47,0,0,1,1.25-1.51,3.44,3.44,0,0,1,1.89-.57,3.38,3.38,0,0,1,2.42,1,3.39,3.39,0,0,1,1,2.44Z"/><path class="cls-7" d="M307.84,381.86a2.92,2.92,0,0,1-3.48,2.86,2.87,2.87,0,0,1-1.49-.8,2.89,2.89,0,0,1-.63-3.17,2.86,2.86,0,0,1,1.07-1.31,2.92,2.92,0,0,1,4.53,2.42Z"/><path class="cls-6" d="M293.66,381.86a2.91,2.91,0,0,1-1.79,2.69,3,3,0,0,1-1.69.17,2.91,2.91,0,0,1-1.49-.8,3,3,0,0,1-.79-1.49,2.84,2.84,0,0,1,.16-1.68,2.91,2.91,0,0,1,5.6,1.11Z"/><path class="cls-7" d="M279.46,381.86a2.91,2.91,0,0,1-.49,1.62,2.86,2.86,0,0,1-1.31,1.07,2.89,2.89,0,0,1-3.17-.63,3,3,0,0,1-.8-1.49,2.92,2.92,0,0,1,.17-1.68,2.86,2.86,0,0,1,1.07-1.31,2.91,2.91,0,0,1,1.62-.49,2.9,2.9,0,0,1,2.91,2.91Z"/><path class="cls-6" d="M265.23,381.86a2.91,2.91,0,0,1-5,2.06,3,3,0,0,1-.8-1.49,2.92,2.92,0,0,1,.17-1.68,2.86,2.86,0,0,1,1.07-1.31,2.91,2.91,0,0,1,1.62-.49,2.9,2.9,0,0,1,2.91,2.91Z"/><path class="cls-10" d="M333.58,325.6H218.32a5.43,5.43,0,0,0-5.43,5.43v24.4a5.43,5.43,0,0,0,5.43,5.43H333.58a5.44,5.44,0,0,0,5.43-5.43V331A5.44,5.44,0,0,0,333.58,325.6Z"/><path class="cls-11" d="M271.5,325.57l-5.73,35.22H218.32a5.41,5.41,0,0,1-5.42-5.42V331a5.41,5.41,0,0,1,5.42-5.42Z"/><path class="cls-9" d="M331.25,353.1V333.36H220.65V353.1Z"/><path class="cls-10" d="M333.58,287.58H218.32a5.43,5.43,0,0,0-5.43,5.43v24.4a5.44,5.44,0,0,0,5.43,5.44H333.58a5.44,5.44,0,0,0,5.43-5.44V293A5.44,5.44,0,0,0,333.58,287.58Z"/><path class="cls-11" d="M277.7,287.63,272,322.86H218.32a5.43,5.43,0,0,1-5.42-5.42V293.05a5.43,5.43,0,0,1,5.42-5.42Z"/><path class="cls-9" d="M331.23,315.08V295.34H220.63v19.74Z"/><path class="cls-7" d="M322.51,343.18a3.36,3.36,0,0,1-.57,1.89,3.32,3.32,0,0,1-1.52,1.25,3.4,3.4,0,1,1-1.3-6.54,3.25,3.25,0,0,1,1.3.26,3.41,3.41,0,0,1,1.1.73,3.32,3.32,0,0,1,.74,1.11A3.2,3.2,0,0,1,322.51,343.18Z"/><path class="cls-7" d="M307.84,343.18a2.92,2.92,0,0,1-3.48,2.86,2.94,2.94,0,0,1-1.49-.8,2.89,2.89,0,0,1-.63-3.17,2.86,2.86,0,0,1,1.07-1.31,2.92,2.92,0,0,1,4.53,2.42Z"/><path class="cls-6" d="M293.66,343.18a2.91,2.91,0,0,1-1.79,2.69,2.9,2.9,0,0,1-4-2.12,2.84,2.84,0,0,1,.16-1.68,2.91,2.91,0,0,1,5.6,1.11Z"/><path class="cls-7" d="M279.46,343.18a2.91,2.91,0,0,1-.49,1.62,2.86,2.86,0,0,1-1.31,1.07A2.92,2.92,0,0,1,276,346a2.93,2.93,0,0,1-2.29-2.29,2.92,2.92,0,0,1,.17-1.68,2.86,2.86,0,0,1,1.07-1.31,2.91,2.91,0,0,1,1.62-.49,2.9,2.9,0,0,1,2.91,2.91Z"/><path class="cls-6" d="M265.23,343.18a2.92,2.92,0,0,1-3.48,2.86,2.93,2.93,0,0,1-2.29-2.29,2.92,2.92,0,0,1,.17-1.68,2.86,2.86,0,0,1,1.07-1.31,2.91,2.91,0,0,1,1.62-.49,2.9,2.9,0,0,1,2.91,2.91Z"/><path class="cls-7" d="M322.51,305.24a3.31,3.31,0,0,1-.57,1.89,3.4,3.4,0,0,1-1.52,1.26,3.49,3.49,0,0,1-2,.19,3.39,3.39,0,0,1-2.47-4.64,3.42,3.42,0,0,1,3.14-2.1,3.4,3.4,0,0,1,3.39,3.4Z"/><path class="cls-6" d="M307.84,305.24a2.9,2.9,0,0,1-3.48,2.86,2.87,2.87,0,0,1-1.49-.8,2.83,2.83,0,0,1-.8-1.49,2.91,2.91,0,1,1,5.77-.57Z"/><path class="cls-6" d="M293.66,305.24a2.94,2.94,0,0,1-1.79,2.7,3,3,0,0,1-1.69.16,2.9,2.9,0,0,1-2.28-2.29,2.85,2.85,0,0,1,.16-1.68,3,3,0,0,1,1.07-1.31,2.92,2.92,0,0,1,3.68.36,2.91,2.91,0,0,1,.85,2.06Z"/><path class="cls-7" d="M279.46,305.24a2.91,2.91,0,1,1-2.91-2.91,2.9,2.9,0,0,1,2.91,2.91Z"/><path class="cls-7" d="M265.23,305.24a2.91,2.91,0,1,1-2.91-2.91,2.9,2.9,0,0,1,2.91,2.91Z"/><path class="cls-7" d="M544,280.86a41.34,41.34,0,0,0-28.88-39.43,38.93,38.93,0,0,0-60.21-27.51,38.92,38.92,0,0,0-60.19,27.51,41.34,41.34,0,0,0,12.43,80.75H503.6A41.32,41.32,0,0,0,544,280.86Z"/><path class="cls-8" d="M454.57,213.75a38.92,38.92,0,0,0-59.85,27.74,41.33,41.33,0,0,0,12.43,80.74h29Z"/><path class="cls-9" d="M468.06,302.05H362.68v7.84H468.06Z"/><path class="cls-9" d="M468.06,264H362.68v7.84H468.06Z"/><path class="cls-10" d="M472.77,308H357.51a5.44,5.44,0,0,0-5.43,5.44v24.4a5.43,5.43,0,0,0,5.43,5.43H472.77a5.43,5.43,0,0,0,5.43-5.43v-24.4A5.44,5.44,0,0,0,472.77,308Z"/><path class="cls-11" d="M404.43,308l-5.76,35.23H357.51a5.41,5.41,0,0,1-5.41-5.42V313.37a5.41,5.41,0,0,1,5.41-5.42Z"/><path class="cls-9" d="M470.44,335.46V315.72H359.84v19.74Z"/><path class="cls-7" d="M461.71,325.57a3.36,3.36,0,0,1-.57,1.89,3.4,3.4,0,1,1,.57-1.89Z"/><path class="cls-7" d="M444.12,328.51a2.92,2.92,0,1,0-2.91-2.91A2.91,2.91,0,0,0,444.12,328.51Z"/><path class="cls-6" d="M432.84,325.57a2.94,2.94,0,0,1-.49,1.62,2.89,2.89,0,0,1-3,1.23,2.82,2.82,0,0,1-1.48-.79,2.91,2.91,0,0,1-.8-1.49,3,3,0,0,1,.16-1.69,2.91,2.91,0,0,1,5.6,1.12Z"/><path class="cls-7" d="M418.65,325.57a3,3,0,0,1-.48,1.62,2.92,2.92,0,0,1-1.31,1.07,2.85,2.85,0,0,1-1.68.16,2.82,2.82,0,0,1-1.49-.79,2.91,2.91,0,0,1-.8-1.49,3,3,0,0,1,.16-1.69,3,3,0,0,1,2.69-1.8,2.92,2.92,0,0,1,2.91,2.92Z"/><path class="cls-6" d="M404.47,325.57a2.9,2.9,0,0,1-1.8,2.69,2.85,2.85,0,0,1-1.68.16,2.82,2.82,0,0,1-1.49-.79,2.91,2.91,0,0,1-.8-1.49,3,3,0,0,1,.17-1.69,2.91,2.91,0,0,1,5.6,1.12Z"/><path class="cls-10" d="M472.77,269.33H357.51a5.43,5.43,0,0,0-5.43,5.43v24.4a5.44,5.44,0,0,0,5.43,5.44H472.77a5.44,5.44,0,0,0,5.43-5.44v-24.4A5.43,5.43,0,0,0,472.77,269.33Z"/><path class="cls-11" d="M410.71,269.33,405,304.55H357.58a5.39,5.39,0,0,1-5.41-5.41V274.75a5.41,5.41,0,0,1,5.41-5.42Z"/><path class="cls-9" d="M470.44,296.83V277.09H359.84v19.74Z"/><path class="cls-10" d="M472.77,231.3H357.51a5.43,5.43,0,0,0-5.43,5.43v24.4a5.44,5.44,0,0,0,5.43,5.44H472.77a5.44,5.44,0,0,0,5.43-5.44v-24.4A5.43,5.43,0,0,0,472.77,231.3Z"/><path class="cls-11" d="M416.87,231.3l-5.74,35.22H357.51a5.39,5.39,0,0,1-5.41-5.41V236.72a5.41,5.41,0,0,1,5.41-5.42Z"/><path class="cls-9" d="M470.44,258.8V239.06H359.84V258.8Z"/><path class="cls-7" d="M461.71,287a3.39,3.39,0,0,1-.57,1.89,3.38,3.38,0,0,1-3.49,1.45,3.4,3.4,0,0,1-1.74-.93,3.4,3.4,0,1,1,5.8-2.41Z"/><path class="cls-7" d="M447,287a2.94,2.94,0,0,1-1.79,2.7,2.9,2.9,0,0,1-4-2.13,2.85,2.85,0,0,1,.16-1.68,2.94,2.94,0,0,1,1.08-1.31,2.88,2.88,0,0,1,1.61-.49A2.9,2.9,0,0,1,447,287Z"/><path class="cls-6" d="M432.84,287a2.94,2.94,0,0,1-1.79,2.7,3,3,0,0,1-1.69.16,2.9,2.9,0,0,1-2.28-2.29,2.91,2.91,0,1,1,5.76-.57Z"/><path class="cls-7" d="M418.65,287a3,3,0,0,1-.48,1.62,2.89,2.89,0,0,1-3,1.24,2.9,2.9,0,0,1-2.29-2.29,2.91,2.91,0,1,1,5.76-.57Z"/><path class="cls-6" d="M404.47,287a2.92,2.92,0,1,1-.86-2.06,2.91,2.91,0,0,1,.86,2.06Z"/><path class="cls-7" d="M461.71,248.94a3.38,3.38,0,0,1-2.1,3.14,3.37,3.37,0,0,1-2,.19A3.4,3.4,0,0,1,455,249.6a3.37,3.37,0,0,1,.19-2,3.42,3.42,0,0,1,4.44-1.85,3.32,3.32,0,0,1,1.11.74,3.45,3.45,0,0,1,.73,1.11A3.39,3.39,0,0,1,461.71,248.94Z"/><path class="cls-6" d="M447,248.94a2.94,2.94,0,0,1-.49,1.62,2.89,2.89,0,0,1-1.3,1.07,3,3,0,0,1-1.69.17,3.06,3.06,0,0,1-1.49-.8,3,3,0,0,1-.79-1.49,2.88,2.88,0,0,1,.16-1.69,2.91,2.91,0,0,1,5.6,1.12Z"/><path class="cls-6" d="M432.84,248.94a2.94,2.94,0,0,1-.49,1.62,2.89,2.89,0,0,1-1.3,1.07,3,3,0,0,1-1.69.17,3,3,0,0,1-1.48-.8,2.91,2.91,0,0,1-.8-1.49,3,3,0,0,1,.16-1.69,2.91,2.91,0,0,1,5.6,1.12Z"/><path class="cls-7" d="M418.65,248.94a3,3,0,0,1-.48,1.62,2.94,2.94,0,0,1-3,1.24,3,3,0,0,1-1.49-.8,2.91,2.91,0,0,1-.8-1.49,3,3,0,0,1,.16-1.69,3,3,0,0,1,2.69-1.8,2.92,2.92,0,0,1,2.91,2.92Z"/><path class="cls-7" d="M404.47,248.94A2.92,2.92,0,0,1,401,251.8a3,3,0,0,1-1.49-.8,2.91,2.91,0,0,1-.8-1.49,3,3,0,0,1,.17-1.69,2.91,2.91,0,0,1,5.6,1.12Z"/><path class="cls-8" d="M183.94,0H368a11.93,11.93,0,0,1,11.93,11.94V122.25a14.2,14.2,0,0,1-14.22,14.22H186.23A14.22,14.22,0,0,1,172,122.25V11.94a11.92,11.92,0,0,1,3.51-8.47A12,12,0,0,1,183.94,0Z"/><path class="cls-12" d="M274.13,0H184a12.12,12.12,0,0,0-4.57.9,11.92,11.92,0,0,0-7.36,11V122.25a14.22,14.22,0,0,0,14.21,14.21h60.4Z"/><path class="cls-10" d="M172,22.46H379.88V147A11.93,11.93,0,0,1,368,158.94h-184A11.93,11.93,0,0,1,172,147Z"/><path class="cls-13" d="M374.19,22.46V147a6.3,6.3,0,0,1-6.31,6.31H183.93a6.29,6.29,0,0,1-2.42-.48,6.11,6.11,0,0,1-2-1.37,6.27,6.27,0,0,1-1.85-4.46V22.46Z"/><path class="cls-14" d="M312.86,114.21V102l-8.39-1.19a27.07,27.07,0,0,0-3.18-7.73l5.06-6.77-8.63-8.7L291,82.71a26.5,26.5,0,0,0-7.7-3.18l-1.2-8.36H269.86l-1.2,8.36A26.67,26.67,0,0,0,261,82.71l-6.77-5.08-8.68,8.69,5.08,6.77a25.45,25.45,0,0,0-3.18,7.72l-8.35,1.2V114.2l8.35,1.2a26.25,26.25,0,0,0,3.18,7.77l-5.08,6.77,8.68,8.65,6.77-5.08a25.38,25.38,0,0,0,7.71,3.22l1.2,8.36h12.19l1.2-8.36a25.33,25.33,0,0,0,7.7-3.22l6.77,5.08,8.63-8.65-5.06-6.77a28.09,28.09,0,0,0,3.18-7.71ZM275.94,126.6a18.49,18.49,0,1,1,18.47-18.47,18.61,18.61,0,0,1-1.41,7.06,18.43,18.43,0,0,1-17.06,11.36Z"/><path class="cls-9" d="M275.89,126.55a18.49,18.49,0,0,1,0-37V71.14h-6.08L268.6,79.5a26.25,26.25,0,0,0-7.7,3.19l-6.77-5.08-8.68,8.68,5.08,6.77a25.15,25.15,0,0,0-3.18,7.73L239,102v12.19l8.36,1.21a26,26,0,0,0,3.18,7.76l-5.08,6.77,8.68,8.65,6.77-5.08a24.84,24.84,0,0,0,7.7,3.22l1.21,8.36h6.08Z"/><path class="cls-15" d="M358.26,64.86V56.13l-6-.85a18.51,18.51,0,0,0-2.26-5.5l3.61-4.8-6.14-6.19-4.84,3.62a18.61,18.61,0,0,0-5.49-2.28l-.86-6h-8.77l-.85,6a18.67,18.67,0,0,0-5.5,2.28l-4.79-3.62L310.18,45l3.62,4.8a17.7,17.7,0,0,0-2.28,5.5l-6,.85v8.73l6,.85a18.32,18.32,0,0,0,2.28,5.53l-3.62,4.81,6.19,6.15,4.79-3.62a17.75,17.75,0,0,0,5.5,2.3l.85,6h8.72l.85-6a17.75,17.75,0,0,0,5.5-2.3l4.83,3.62,6.15-6.15-3.62-4.84a19,19,0,0,0,2.26-5.5Zm-26.32,8.82a13.16,13.16,0,1,1,5-1,13.19,13.19,0,0,1-5,1Z"/><path class="cls-10" d="M250.31,29.33H184.67v5.46h65.64Z"/><path class="cls-10" d="M250.31,42.23H184.67v5.46h65.64Z"/><path class="cls-10" d="M250.31,55.13H184.67v5.46h65.64Z"/><path class="cls-10" d="M236.12,68H184.67v5.46h51.45Z"/><path class="cls-10" d="M236.12,80.93H184.67v5.46h51.45Z"/><path class="cls-6" d="M330.68,11.43a4.66,4.66,0,0,1-.77,2.56,4.59,4.59,0,1,1-3.82-7.13,4.37,4.37,0,0,1,1.75.34,4.58,4.58,0,0,1,2.84,4.23Z"/><path class="cls-6" d="M349.38,11.43a4.6,4.6,0,0,1-.77,2.55,4.57,4.57,0,0,1-7.05.69,4.58,4.58,0,0,1-1.25-2.34,4.71,4.71,0,0,1,.26-2.65,4.63,4.63,0,0,1,1.69-2,4.49,4.49,0,0,1,2.54-.77,4.58,4.58,0,0,1,4.58,4.57Z"/><path class="cls-6" d="M368.13,11.43a4.6,4.6,0,0,1-.77,2.55,4.58,4.58,0,0,1-4.7,1.95,4.62,4.62,0,0,1-3.6-3.6,4.71,4.71,0,0,1,.26-2.65,4.63,4.63,0,0,1,1.69-2,4.52,4.52,0,0,1,2.54-.77,4.58,4.58,0,0,1,4.58,4.57Z"/><path class="cls-7" d="M320.33,139.26a3.67,3.67,0,0,1-.61,2,3.59,3.59,0,0,1-1.64,1.34,3.64,3.64,0,0,1-2.11.21,3.71,3.71,0,0,1-1.88-1,3.66,3.66,0,0,1-.79-4,3.73,3.73,0,0,1,1.35-1.64,3.66,3.66,0,0,1,2-.61,3.65,3.65,0,0,1,3.65,3.65Z"/><path class="cls-7" d="M336.15,139.26a3.66,3.66,0,0,1-2.26,3.41,3.67,3.67,0,0,1-4.8-4.79,3.52,3.52,0,0,1,1.35-1.65,3.6,3.6,0,0,1,2-.62,3.67,3.67,0,0,1,3.67,3.65Z"/><path class="cls-7" d="M353.45,139.26a5.22,5.22,0,0,1-3.18,4.8,5.21,5.21,0,0,1-5.65-1.12,5.22,5.22,0,0,1-1.12-5.65,5.17,5.17,0,0,1,9.95,2Z"/><path class="cls-7" d="M367.76,139.26a3.65,3.65,0,0,1-.61,2.05,3.68,3.68,0,0,1-5.65.57,3.76,3.76,0,0,1-1-1.88,3.67,3.67,0,0,1,6.19-3.32,3.62,3.62,0,0,1,1.08,2.58Z"/><path class="cls-7" d="M191.46,139.26a3.67,3.67,0,0,1-6.26,2.62,3.62,3.62,0,0,1-1-1.88,3.66,3.66,0,0,1,.21-2.12,3.52,3.52,0,0,1,1.35-1.65,3.6,3.6,0,0,1,2-.62,3.65,3.65,0,0,1,2.59,1.07,3.71,3.71,0,0,1,1.08,2.58Z"/><path class="cls-7" d="M207.26,139.26a3.68,3.68,0,0,1-.62,2,3.59,3.59,0,0,1-1.64,1.34,3.65,3.65,0,0,1-4-.79,3.65,3.65,0,0,1,.55-5.63,3.66,3.66,0,0,1,2-.61,3.67,3.67,0,0,1,3.66,3.65Z"/><path class="cls-7" d="M223.06,139.26a3.68,3.68,0,0,1-.62,2,3.59,3.59,0,0,1-1.64,1.34,3.65,3.65,0,0,1-4-.79,3.57,3.57,0,0,1-1-1.87,3.66,3.66,0,0,1,.2-2.12,3.73,3.73,0,0,1,1.35-1.64,3.66,3.66,0,0,1,5.69,3Z"/><path class="cls-7" d="M238.87,139.26a3.73,3.73,0,0,1-.61,2.05,3.77,3.77,0,0,1-1.65,1.36,3.66,3.66,0,0,1-2.12.21,3.58,3.58,0,0,1-1.88-1,3.62,3.62,0,0,1-1-1.88,3.66,3.66,0,0,1,.21-2.12,3.72,3.72,0,0,1,1.36-1.65,3.66,3.66,0,0,1,5.7,3Z"/><path class="cls-16" d="M158.84,35.46v-10l-6.89-1a21.91,21.91,0,0,0-2.6-6.33l4.16-5.53-7.07-7.11-5.58,4.16A21.35,21.35,0,0,0,134.54,7l-1-6.85h-10l-1,6.85a22,22,0,0,0-6.32,2.62l-5.53-4.16-7.1,7.14,4.15,5.53a21.07,21.07,0,0,0-2.61,6.32l-6.85,1v10l6.85,1a21.35,21.35,0,0,0,2.61,6.37l-4.15,5.52,7.1,7.09,5.53-4.16a21,21,0,0,0,6.32,2.64l1,6.86h10l1-6.86a20.53,20.53,0,0,0,6.32-2.64l5.58,4.16,7.07-7.09-4.16-5.56a22.43,22.43,0,0,0,2.6-6.33ZM128.57,43a12.58,12.58,0,0,1-12.34-15,12.54,12.54,0,0,1,9.88-9.87,12.49,12.49,0,0,1,7.27.72A12.56,12.56,0,0,1,128.57,43Z"/><path class="cls-17" d="M471.11,174.15v-8.7l-6-.85a19,19,0,0,0-2.26-5.42l3.6-4.8-6.13-6.16-4.82,3.6a19.1,19.1,0,0,0-5.42-2.26l-.85-5.93h-8.69l-.86,5.93a18.92,18.92,0,0,0-5.41,2.26l-4.78-3.6-6.18,6.16,3.62,4.8a17.56,17.56,0,0,0-2.26,5.42l-5.95.85v8.7l5.95.86a18.36,18.36,0,0,0,2.26,5.5l-3.62,4.79,6.18,6.14,4.78-3.62a17.74,17.74,0,0,0,5.41,2.3l.86,5.94h8.69l.85-5.94a17.9,17.9,0,0,0,5.42-2.3l4.82,3.62,6.13-6.14-3.59-4.82a19.82,19.82,0,0,0,2.26-5.42Zm-26.23,6.53a10.82,10.82,0,1,1,7.66-3.17A10.77,10.77,0,0,1,444.88,180.68Z"/><path class="cls-16" d="M395.6,373.33v-5.76l-3.94-.57a12.22,12.22,0,0,0-1.5-3.62l2.39-3.17-4.06-4.06-3.19,2.39a12.22,12.22,0,0,0-3.62-1.5l-.57-3.93h-5.74L374.8,357a12.28,12.28,0,0,0-3.63,1.5L368,356.15,364,360.21l2.39,3.17a11.61,11.61,0,0,0-1.5,3.62l-3.93.57v5.74l3.93.57a12.39,12.39,0,0,0,1.5,3.65L364,380.7l4.06,4.06,3.15-2.4a11.84,11.84,0,0,0,3.63,1.53l.57,3.93h5.74l.57-3.93a11.78,11.78,0,0,0,3.62-1.53l3.14,2.41,4.06-4.06-2.4-3.18a12.72,12.72,0,0,0,1.5-3.64Zm-17.34,4.33a7.2,7.2,0,0,1-7.08-8.61,7.13,7.13,0,0,1,2-3.69A7.16,7.16,0,0,1,381,363.8a7.17,7.17,0,0,1,4.44,6.67,7,7,0,0,1-.54,2.75,7.2,7.2,0,0,1-3.89,3.9,7.21,7.21,0,0,1-2.75.54Z"/><path class="cls-17" d="M226,413.75c0-4,2.12-6.23,5-6.23s5,2.27,5,6.23-2.13,6.25-5,6.25S226,417.7,226,413.75Zm8.2,0c0-3.11-1.35-4.68-3.22-4.68s-3.24,1.57-3.24,4.68,1.36,4.69,3.24,4.69,3.21-1.56,3.21-4.69Z"/><path class="cls-17" d="M237.58,413.75c0-4,2.13-6.23,5-6.23s5,2.27,5,6.23-2.12,6.25-5,6.25S237.58,417.7,237.58,413.75Zm8.13,0c0-3.11-1.36-4.68-3.21-4.68s-3.25,1.57-3.25,4.68,1.35,4.69,3.25,4.69,3.27-1.56,3.27-4.69Z"/><path class="cls-17" d="M252.92,407.66v12.19H251.2V409.16h-2.7v-1.52Z"/><path class="cls-17" d="M255.59,413.75c0-4,2.13-6.23,5-6.23s5,2.27,5,6.23-2.12,6.25-5,6.25S255.59,417.7,255.59,413.75Zm8.21,0c0-3.11-1.36-4.68-3.23-4.68s-3.23,1.57-3.23,4.68,1.35,4.69,3.23,4.69S263.8,416.88,263.8,413.75Z"/><path class="cls-17" d="M270.94,407.66v12.19h-1.65V409.16h-2.71v-1.52Z"/><path class="cls-17" d="M273.61,413.75c0-4,2.13-6.23,5-6.23s5,2.27,5,6.23-2.13,6.25-5,6.25S273.61,417.7,273.61,413.75Zm8.21,0c0-3.11-1.36-4.68-3.23-4.68s-3.25,1.57-3.25,4.68,1.36,4.69,3.25,4.69S281.82,416.88,281.82,413.75Z"/><path class="cls-17" d="M289,407.66v12.19h-1.72V409.16h-2.71v-1.52Z"/><path class="cls-17" d="M40.48,195.23c0-5,2.71-7.84,6.26-7.84S53,190.23,53,195.23s-2.71,7.83-6.24,7.83S40.48,200.22,40.48,195.23Zm10.3,0c0-3.91-1.66-5.89-4.06-5.89s-4.06,2-4.06,5.89,1.67,5.9,4.06,5.9,4-2,4-5.9Z"/><path class="cls-17" d="M55.05,195.23c0-5,2.71-7.84,6.27-7.84s6.23,2.84,6.23,7.84-2.71,7.83-6.23,7.83S55.05,200.22,55.05,195.23Zm10.3,0c0-3.91-1.65-5.89-4.06-5.89s-4.06,2-4.06,5.89,1.67,5.9,4.06,5.9S65.35,199.15,65.35,195.23Z"/><path class="cls-17" d="M74.33,187.56v15.33H72.16V189.47H68.71v-1.91Z"/><path class="cls-17" d="M77.69,195.23c0-5,2.71-7.84,6.25-7.84s6.24,2.84,6.24,7.84-2.7,7.83-6.24,7.83S77.69,200.22,77.69,195.23Zm10.3,0c0-3.91-1.65-5.89-4.06-5.89s-4.06,2-4.06,5.89,1.66,5.9,4.06,5.9S88,199.15,88,195.23Z"/><path class="cls-17" d="M97,187.56v15.33H94.8V189.47H91.35v-1.91Z"/><path class="cls-17" d="M105.08,187.56v15.33h-2.17V189.47H99.44v-1.91Z"/><path class="cls-17" d="M108.42,195.23c0-5,2.71-7.84,6.26-7.84s6.24,2.84,6.24,7.84-2.71,7.83-6.24,7.83S108.42,200.22,108.42,195.23Zm10.3,0c0-3.91-1.65-5.89-4.06-5.89s-4.06,2-4.06,5.89,1.67,5.9,4.06,5.9,4.06-2,4.06-5.9Z"/><path class="cls-17" d="M123.07,195.23c0-5,2.71-7.84,6.25-7.84s6.23,2.84,6.23,7.84-2.7,7.83-6.23,7.83S123.07,200.22,123.07,195.23Zm10.3,0c0-3.91-1.66-5.89-4.06-5.89s-4.06,2-4.06,5.89,1.67,5.9,4.06,5.9,4-2,4-5.9Z"/><path class="cls-17" d="M137.62,195.23c0-5,2.71-7.84,6.26-7.84s6.24,2.84,6.24,7.84-2.71,7.83-6.24,7.83S137.62,200.22,137.62,195.23Zm10.31,0c0-3.91-1.65-5.89-4.06-5.89s-4.07,2-4.07,5.89,1.67,5.9,4.07,5.9S147.93,199.15,147.93,195.23Z"/><path class="cls-17" d="M156.92,187.56v15.33h-2.17V189.47H151.3v-1.91Z"/><path class="cls-17" d="M160.26,195.23c0-5,2.71-7.84,6.26-7.84s6.24,2.84,6.24,7.84-2.71,7.83-6.24,7.83S160.26,200.22,160.26,195.23Zm10.31,0c0-3.91-1.67-5.89-4.07-5.89s-4.06,2-4.06,5.89,1.67,5.9,4.06,5.9S170.57,199.15,170.57,195.23Z"/><path class="cls-17" d="M179.54,187.56v15.33h-2.16V189.47h-3.46v-1.91Z"/><path class="cls-17" d="M281.88,213.25c0-5,2.71-7.84,6.26-7.84s6.24,2.84,6.24,7.84-2.71,7.83-6.24,7.83S281.88,218.24,281.88,213.25Zm10.31,0c0-3.93-1.67-5.89-4.07-5.89s-4.06,2-4.06,5.89,1.67,5.88,4.06,5.88S292.19,217.18,292.19,213.25Z"/><path class="cls-17" d="M301.16,205.58v15.33H299V207.49h-3.46v-1.91Z"/><path class="cls-17" d="M309.26,205.58v15.33h-2.17V207.49h-3.45v-1.91Z"/><path class="cls-17" d="M312.62,213.25c0-5,2.71-7.84,6.25-7.84s6.24,2.84,6.24,7.84-2.7,7.83-6.24,7.83S312.62,218.24,312.62,213.25Zm10.3,0c0-3.93-1.66-5.89-4.06-5.89s-4.06,2-4.06,5.89,1.65,5.88,4.06,5.88S322.92,217.18,322.92,213.25Z"/><path class="cls-17" d="M327.21,213.25c0-5,2.71-7.84,6.27-7.84s6.23,2.84,6.23,7.84-2.71,7.83-6.23,7.83S327.21,218.24,327.21,213.25Zm10.32,0c0-3.93-1.67-5.89-4.06-5.89s-4.06,2-4.06,5.89,1.66,5.88,4.06,5.88S337.53,217.18,337.53,213.25Z"/><path class="cls-17" d="M341.82,213.25c0-5,2.71-7.84,6.26-7.84s6.24,2.84,6.24,7.84-2.71,7.83-6.24,7.83S341.82,218.24,341.82,213.25Zm10.3,0c0-3.93-1.66-5.89-4.06-5.89s-4.06,2-4.06,5.89,1.67,5.88,4.06,5.88S352.12,217.18,352.12,213.25Z"/><path class="cls-17" d="M394.93,29.33a3.65,3.65,0,0,1-4.36,3.59,3.71,3.71,0,0,1-1.88-1,3.66,3.66,0,1,1,6.24-2.59Z"/><path class="cls-17" d="M410.75,29.33a3.73,3.73,0,0,1-.61,2.05A3.67,3.67,0,0,1,406.37,33a3.67,3.67,0,0,1-2.89-2.89,3.71,3.71,0,0,1,.21-2.13,3.67,3.67,0,0,1,7.06,1.4Z"/><path class="cls-17" d="M428.07,29.33a5.18,5.18,0,0,1-3.2,4.78,5.18,5.18,0,0,1-7.05-3.77,5.19,5.19,0,0,1,.29-3A5.28,5.28,0,0,1,420,25a5.18,5.18,0,0,1,8.05,4.3Z"/><path class="cls-17" d="M442.36,29.33A3.67,3.67,0,0,1,438,33a3.7,3.7,0,0,1-2.89-2.89,3.71,3.71,0,0,1,.22-2.13,3.61,3.61,0,0,1,1.35-1.64,3.65,3.65,0,0,1,4.63.46,3.61,3.61,0,0,1,1.07,2.58Z"/><path class="cls-17" d="M177,358.31a3.64,3.64,0,0,1,.61-2,3.66,3.66,0,0,1,5.64-.57,3.62,3.62,0,0,1,1,1.88,3.64,3.64,0,0,1-1.56,3.77,3.6,3.6,0,0,1-2,.62,3.75,3.75,0,0,1-1.4-.27,3.81,3.81,0,0,1-1.19-.79,3.64,3.64,0,0,1-.79-1.19,3.58,3.58,0,0,1-.28-1.41Z"/><path class="cls-17" d="M161.16,358.31a3.63,3.63,0,0,1,4.36-3.58,3.71,3.71,0,0,1,1.88,1,3.64,3.64,0,0,1,1,1.87,3.71,3.71,0,0,1-.21,2.11,3.75,3.75,0,0,1-1.35,1.65,3.66,3.66,0,0,1-2,.61,3.61,3.61,0,0,1-2.58-1.07A3.65,3.65,0,0,1,161.16,358.31Z"/><path class="cls-17" d="M143.84,358.31a5.15,5.15,0,0,1,.87-2.87,5.18,5.18,0,0,1,9.08,4.86,5.17,5.17,0,0,1-9.95-2Z"/><path class="cls-17" d="M129.54,358.31a3.66,3.66,0,0,1,2.26-3.4,3.67,3.67,0,0,1,3.44,6.45,3.62,3.62,0,0,1-2,.61,3.65,3.65,0,0,1-2.59-1.07A3.7,3.7,0,0,1,129.54,358.31Z"/><path class="cls-18" d="M366.06,224.2h-6.22v3.67h6.22Z"/><path class="cls-18" d="M366.06,217.3h-6.22V221h6.22Z"/><path class="cls-18" d="M366.06,210.41h-6.22v3.67h6.22Z"/><path class="cls-18" d="M366.06,203.51h-6.22v3.67h6.22Z"/><path class="cls-18" d="M366.06,196.61h-6.22v3.68h6.22Z"/><path class="cls-18" d="M366.06,189.72h-6.22v3.67h6.22Z"/><path class="cls-18" d="M366.06,182.82h-6.22v3.67h6.22Z"/><path class="cls-18" d="M366.06,175.93h-6.22v3.67h6.22Z"/><path class="cls-18" d="M366.06,169h-6.22v3.67h6.22Z"/><path class="cls-18" d="M366.06,162.13h-6.22v3.67h6.22Z"/><path class="cls-18" d="M279.05,224.2h-6.21v3.67h6.21Z"/><path class="cls-18" d="M279.05,217.3h-6.21V221h6.21Z"/><path class="cls-18" d="M279.05,210.41h-6.21v3.67h6.21Z"/><path class="cls-18" d="M279.05,203.51h-6.21v3.67h6.21Z"/><path class="cls-18" d="M279.05,196.61h-6.21v3.68h6.21Z"/><path class="cls-18" d="M279.05,189.72h-6.21v3.67h6.21Z"/><path class="cls-18" d="M279.05,182.82h-6.21v3.67h6.21Z"/><path class="cls-18" d="M279.05,175.93h-6.21v3.67h6.21Z"/><path class="cls-18" d="M279.05,169h-6.21v3.67h6.21Z"/><path class="cls-18" d="M279.05,162.13h-6.21v3.67h6.21Z"/><path class="cls-18" d="M192,224.2h-6.22v3.67H192Z"/><path class="cls-18" d="M192,217.3h-6.22V221H192Z"/><path class="cls-18" d="M192,210.41h-6.22v3.67H192Z"/><path class="cls-18" d="M192,203.51h-6.22v3.67H192Z"/><path class="cls-18" d="M192,196.61h-6.22v3.68H192Z"/><path class="cls-18" d="M192,189.72h-6.22v3.67H192Z"/><path class="cls-18" d="M192,182.82h-6.22v3.67H192Z"/><path class="cls-18" d="M192,175.93h-6.22v3.67H192Z"/><path class="cls-18" d="M192,169h-6.22v3.67H192Z"/><path class="cls-18" d="M192,162.13h-6.22v3.67H192Z"/></g></g></g></svg>