<svg xmlns="http://www.w3.org/2000/svg" xmlns:xlink="http://www.w3.org/1999/xlink" viewBox="0 0 48 48"><defs><style>.cls-1{fill-rule:evenodd;fill:url(#linear-gradient);}</style><linearGradient id="linear-gradient" x1="9.29" y1="-575.06" x2="38.53" y2="-632.59" gradientTransform="matrix(1, 0, 0, -1, 0, -580)" gradientUnits="userSpaceOnUse"><stop offset="0" stop-color="#09c6f9"/><stop offset="1" stop-color="#045de9"/></linearGradient></defs><g id="Layer_2" data-name="Layer 2"><g id="Layer_1-2" data-name="Layer 1"><path class="cls-1" d="M16.08.92a34.46,34.46,0,0,1,15.84,0A20.34,20.34,0,0,1,47.08,16.08a34.46,34.46,0,0,1,0,15.84A20.34,20.34,0,0,1,31.92,47.08a34.46,34.46,0,0,1-15.84,0A20.34,20.34,0,0,1,.92,31.92a34.46,34.46,0,0,1,0-15.84A20.34,20.34,0,0,1,16.08.92ZM28,18.7A1,1,0,0,1,29.3,20l-2.08,5.2a3.54,3.54,0,0,1-2,2L20,29.3A1,1,0,0,1,18.7,28l2.08-5.2a3.54,3.54,0,0,1,2-2Zm4.18,2.47a4.08,4.08,0,0,0-5.31-5.31l-5.21,2.08a6.62,6.62,0,0,0-3.69,3.69l-2.08,5.21a4.08,4.08,0,0,0,5.31,5.31l5.2-2.09a6.62,6.62,0,0,0,3.69-3.69Z"/></g></g></svg>