<svg xmlns="http://www.w3.org/2000/svg" xmlns:xlink="http://www.w3.org/1999/xlink" viewBox="0 0 32 32"><defs><style>.cls-1{fill:url(#linear-gradient);}.cls-2{fill:#fff;}</style><linearGradient id="linear-gradient" x1="6.19" y1="-993.3" x2="25.69" y2="-1031.66" gradientTransform="matrix(1, 0, 0, -1, 0, -996.6)" gradientUnits="userSpaceOnUse"><stop offset="0" stop-color="#09c6f9"/><stop offset="1" stop-color="#045de9"/></linearGradient></defs><g id="Layer_2" data-name="Layer 2"><g id="Layer_1-2" data-name="Layer 1"><circle class="cls-1" cx="16" cy="16" r="16"/><path class="cls-2" d="M10.62,19.68v-8.4h1.54v8.4Zm6.84.15a3.91,3.91,0,0,1-2.08-.54A3.71,3.71,0,0,1,14,17.79a4.92,4.92,0,0,1-.49-2.26,5,5,0,0,1,.5-2.28,3.87,3.87,0,0,1,1.45-1.55,4.39,4.39,0,0,1,2.25-.56,4.08,4.08,0,0,1,2.45.71,3.29,3.29,0,0,1,1.26,2H19.7a1.68,1.68,0,0,0-.7-.91,2.29,2.29,0,0,0-1.29-.33,2.42,2.42,0,0,0-2,.8,3.27,3.27,0,0,0-.68,2.18,3.16,3.16,0,0,0,.67,2.16,2.36,2.36,0,0,0,1.85.76,2.26,2.26,0,0,0,1.72-.61,2.8,2.8,0,0,0,.7-1.63H17.9V15.06h3.67v4.62H20.16L20,18.58a2.88,2.88,0,0,1-1,.92A3.28,3.28,0,0,1,17.46,19.83Z"/></g></g></svg>