<svg xmlns="http://www.w3.org/2000/svg" xmlns:xlink="http://www.w3.org/1999/xlink" viewBox="0 0 48 61"><defs><style>.cls-1{fill-rule:evenodd;fill:url(#linear-gradient);}</style><linearGradient id="linear-gradient" x1="6.41" y1="-759.58" x2="48.35" y2="-824.49" gradientTransform="matrix(1, 0, 0, -1, 0, -764)" gradientUnits="userSpaceOnUse"><stop offset="0" stop-color="#09c6f9"/><stop offset="1" stop-color="#045de9"/></linearGradient></defs><g id="Layer_2" data-name="Layer 2"><g id="Layer_1-2" data-name="Layer 1"><path class="cls-1" d="M32.92,44.48l-1.4.31v1.86a7.3,7.3,0,0,1-4.8,6.9v5a2.4,2.4,0,1,1-4.8,0v-5a7.31,7.31,0,0,1-4.8-6.9V44.93l-.62-.13-1.42-.32A18.77,18.77,0,0,1,1,30.63,32.37,32.37,0,0,1,1,15,18.78,18.78,0,0,1,15.08,1.13L16.5.82a34.81,34.81,0,0,1,15,0l1.42.31A18.78,18.78,0,0,1,47,15a32.37,32.37,0,0,1,0,15.65A18.77,18.77,0,0,1,32.92,44.48Zm-6.2,1-.83.05a35.05,35.05,0,0,1-4,0v1.1a2.4,2.4,0,1,0,4.8,0Zm.08-32.39a2,2,0,0,1,.3,2.74l-3.9,5h5.6a1.91,1.91,0,0,1,1.73,1.11A2,2,0,0,1,30.3,24l-6.4,8.14a1.9,1.9,0,0,1-2.7.3,2,2,0,0,1-.3-2.74l3.91-5H19.2a1.92,1.92,0,0,1-1.73-1.1,2,2,0,0,1,.23-2.07l6.4-8.13A1.9,1.9,0,0,1,26.8,13.12Z"/></g></g></svg>