<svg xmlns="http://www.w3.org/2000/svg" viewBox="0 0 63.1 61"><defs><style>.cls-1{fill:#ff3343;}</style></defs><g id="Layer_2" data-name="Layer 2"><g id="Layer_1-2" data-name="Layer 1"><path class="cls-1" d="M45.25,12.52,33.45.61a2.11,2.11,0,0,0-.69-.45A2.05,2.05,0,0,0,32,0a2.08,2.08,0,0,0-1.47.61L.61,30.37A2.13,2.13,0,0,0,0,31.86a2.11,2.11,0,0,0,.61,1.48L12.52,45.25a2.12,2.12,0,0,0,1.49.61,2.17,2.17,0,0,0,1.47-.61l6-6L39.29,21.43l6-5.95a2.1,2.1,0,0,0,0-3ZM37.8,17l-1.49-1.5a2.13,2.13,0,0,0-1.49-.61,2.11,2.11,0,0,0-1.48.61,2.14,2.14,0,0,0-.46.69,2.11,2.11,0,0,0,0,1.61,2.14,2.14,0,0,0,.46.69L34.84,20l-3,3-4.46-4.46A2.08,2.08,0,0,0,25.94,18a2.15,2.15,0,0,0-1.41.62,2.11,2.11,0,0,0-.11,2.85l4.46,4.46-3,3-1.48-1.49a2.11,2.11,0,1,0-3,3l1.49,1.48-3,3-4.48-4.46a2.09,2.09,0,0,0-3.57,1.49,2.06,2.06,0,0,0,.61,1.48L17,37.8l-3,3L5.07,31.85,31.85,5.07,40.79,14Z"/><path class="cls-1" d="M23.14,61H61a2.1,2.1,0,0,0,2.1-2.1V21a2.1,2.1,0,0,0-2.1-2.1H48.38a2.1,2.1,0,0,0-2.1,2.1V44.17H23.14a2.08,2.08,0,0,0-1.49.62A2.12,2.12,0,0,0,21,46.28V58.9a2.12,2.12,0,0,0,.62,1.48,2.08,2.08,0,0,0,1.49.62Zm2.1-12.62h4.21v2.1a2.1,2.1,0,0,0,2.1,2.11A2.08,2.08,0,0,0,33,52a2.12,2.12,0,0,0,.62-1.49v-2.1h4.2v2.1a2.11,2.11,0,0,0,4.21,0v-2.1h4.21v2.1a2.1,2.1,0,1,0,4.2,0v-2.1h2.11a2.11,2.11,0,0,0,0-4.21H50.48V40h2.11a2.12,2.12,0,0,0,1.48-.62,2.08,2.08,0,0,0,.62-1.49,2.12,2.12,0,0,0-2.1-2.1H50.48V31.55h2.11a2.1,2.1,0,1,0,0-4.2H50.48V23.14H58.9V56.79H25.24Z"/></g></g></svg>