<svg xmlns="http://www.w3.org/2000/svg" viewBox="0 0 49 61"><defs><style>.cls-1{fill:#fff;}</style></defs><g id="Layer_2" data-name="Layer 2"><g id="Layer_1-2" data-name="Layer 1"><path class="cls-1" d="M27.56,36.6H15.31a3.06,3.06,0,0,0-3.06,3,3,3,0,0,0,.9,2.16,3.06,3.06,0,0,0,2.16.89H27.56a3.05,3.05,0,1,0,0-6.1ZM39.81,6.1H36.2A9.21,9.21,0,0,0,27.56,0H21.44A9.21,9.21,0,0,0,12.8,6.1H9.19A9.17,9.17,0,0,0,0,15.25v36.6A9.17,9.17,0,0,0,9.19,61H39.81A9.17,9.17,0,0,0,49,51.85V15.25A9.17,9.17,0,0,0,39.81,6.1ZM18.38,9.15A3,3,0,0,1,21.44,6.1h6.12a3,3,0,0,1,3.06,3.05v3H18.38Zm24.5,42.7a3.06,3.06,0,0,1-3.07,3H9.19a3.06,3.06,0,0,1-3.07-3V15.25A3.07,3.07,0,0,1,7,13.09a3.1,3.1,0,0,1,2.17-.89h3.06v3.05a3,3,0,0,0,.9,2.16,3.06,3.06,0,0,0,2.16.89H33.69a3.06,3.06,0,0,0,2.16-.89,3,3,0,0,0,.9-2.16V12.2h3.06a3.1,3.1,0,0,1,2.17.89,3.07,3.07,0,0,1,.9,2.16ZM33.69,24.4H15.31a3.06,3.06,0,0,0-3.06,3.05,3,3,0,0,0,.9,2.16,3.06,3.06,0,0,0,2.16.89H33.69a3.06,3.06,0,0,0,2.16-.89,3,3,0,0,0,0-4.32A3.06,3.06,0,0,0,33.69,24.4Z"/></g></g></svg>