<svg xmlns="http://www.w3.org/2000/svg" viewBox="0 0 22 18"><defs><style>.cls-1{fill:#fff;}</style></defs><g id="Layer_2" data-name="Layer 2"><g id="Layer_1-2" data-name="Layer 1"><path class="cls-1" d="M22,2.16a9.36,9.36,0,0,1-2.6.7,4.48,4.48,0,0,0,2-2.51,8.88,8.88,0,0,1-2.87,1.11A4.46,4.46,0,0,0,16,.06a4.53,4.53,0,0,0-5.14,5.53A12.9,12.9,0,0,1,5.67,4.22,12.86,12.86,0,0,1,1.53.85,4.62,4.62,0,0,0,.92,3.14a4.67,4.67,0,0,0,.53,2.14A4.46,4.46,0,0,0,2.93,6.91,4.47,4.47,0,0,1,.88,6.35V6.4a4.55,4.55,0,0,0,1,2.86,4.46,4.46,0,0,0,2.6,1.56A4.13,4.13,0,0,1,3.3,11a4.89,4.89,0,0,1-.85-.08,4.52,4.52,0,0,0,4.22,3.14A9,9,0,0,1,1.1,16,8,8,0,0,1,0,16,12.68,12.68,0,0,0,6.92,18a12.7,12.7,0,0,0,4.94-.95,12.61,12.61,0,0,0,4.19-2.79,12.87,12.87,0,0,0,2.8-4.21,13,13,0,0,0,.95-5V4.5A9.41,9.41,0,0,0,22,2.16Z"/></g></g></svg>