<svg xmlns="http://www.w3.org/2000/svg" viewBox="0 0 65 70.97"><defs><style>.cls-1{fill:#ff3343;}</style></defs><g id="Layer_2" data-name="Layer 2"><g id="Layer_1-2" data-name="Layer 1"><path class="cls-1" d="M48.13,42.38a2.73,2.73,0,0,0-.35.47,1.62,1.62,0,0,0-.27.5,1.75,1.75,0,0,0-.18.56,2.7,2.7,0,0,0,.18,1.68,2.64,2.64,0,0,0,.62,1,2.78,2.78,0,0,0,1,.62,2.53,2.53,0,0,0,1.12.23,2.88,2.88,0,0,0,1.12-.2,4.22,4.22,0,0,0,1-.65,2.79,2.79,0,0,0,.64-1,2.92,2.92,0,0,0,.22-1.13,2.41,2.41,0,0,0-.24-1.12,2.92,2.92,0,0,0-.62-1,2.84,2.84,0,0,0-1-.64,3.11,3.11,0,0,0-1.13-.22,3,3,0,0,0-1.12.24A2.87,2.87,0,0,0,48.13,42.38ZM36,54.63a5.57,5.57,0,0,0-.5,1.06,2.44,2.44,0,0,0,0,1.14l.17.53.27.53.35.45a3.14,3.14,0,0,0,2.16.85A2.92,2.92,0,0,0,39.54,59a3.12,3.12,0,0,0,1-.63,3.46,3.46,0,0,0,.62-1,2.94,2.94,0,0,0,.2-1.41,2.82,2.82,0,0,0-.48-1.34,3,3,0,0,0-1.06-1,2.89,2.89,0,0,0-1.38-.35,3.16,3.16,0,0,0-2.1.85Zm12.17-.48a3,3,0,0,0-.62,1,2.92,2.92,0,0,0-.24,1.7l.18.53a1.77,1.77,0,0,0,.27.53,3,3,0,0,0,.35.45A3.06,3.06,0,0,0,49,59a2.76,2.76,0,0,0,1.13.24A2.68,2.68,0,0,0,51.29,59a3.22,3.22,0,0,0,1-.61,2.89,2.89,0,0,0,.66-1,2.77,2.77,0,0,0,.25-1.13,2.41,2.41,0,0,0-.24-1.12,3.07,3.07,0,0,0-.62-1,3.25,3.25,0,0,0-1-.61,2.72,2.72,0,0,0-1.12-.24,2.68,2.68,0,0,0-1.12.24A3,3,0,0,0,48.13,54.15ZM35.69,45.59a2.92,2.92,0,0,0,.62,1,3.11,3.11,0,0,0,2.1.85,2.89,2.89,0,0,0,1.38-.35,3,3,0,0,0,1.06-1,2.82,2.82,0,0,0,.48-1.34,2.94,2.94,0,0,0-.2-1.41,3.28,3.28,0,0,0-.62-1,3,3,0,0,0-1-.64,3,3,0,0,0-3.23.64,2.93,2.93,0,0,0-.62,3.21Zm12.44-15a3.41,3.41,0,0,0-.62,1,2.93,2.93,0,0,0,.62,3.21,2.9,2.9,0,0,0,3.22.62,3.28,3.28,0,0,0,1-.62,2.7,2.7,0,0,0,.64-1,2.92,2.92,0,0,0,.22-1.13,2.41,2.41,0,0,0-.24-1.12,3,3,0,0,0-.62-1,2.93,2.93,0,0,0-1.51-.8,3,3,0,0,0-1.7.18A2.87,2.87,0,0,0,48.13,30.6ZM11.82,32.69V56.25a2.94,2.94,0,0,0,.86,2.08,3,3,0,0,0,2.09.86H26.59a2.94,2.94,0,0,0,2.95-2.94V32.69a2.94,2.94,0,0,0-2.95-2.94H14.77a3,3,0,0,0-2.09.86A2.94,2.94,0,0,0,11.82,32.69Zm11.82,2.94V53.3H17.73V35.63ZM0,26.8V62.13A8.86,8.86,0,0,0,8.86,71H56.14A8.86,8.86,0,0,0,65,62.13V26.8A8.84,8.84,0,0,0,56.14,18H8.86A8.84,8.84,0,0,0,0,26.8Zm56.14-2.94a3,3,0,0,1,2.09.86,2.94,2.94,0,0,1,.86,2.08V62.13a2.94,2.94,0,0,1-3,2.95H8.86a2.94,2.94,0,0,1-2.95-2.95V26.8a2.94,2.94,0,0,1,.86-2.08,3,3,0,0,1,2.09-.86ZM36,31.07a1.62,1.62,0,0,0-.27.5,1.93,1.93,0,0,0-.18.56,2.79,2.79,0,0,0,0,1.15l.18.53.27.53.35.44a3.11,3.11,0,0,0,2.1.85,2.89,2.89,0,0,0,1.38-.35,3,3,0,0,0,1.06-1A2.82,2.82,0,0,0,41.33,33a3,3,0,0,0-.2-1.41,3.41,3.41,0,0,0-.62-1,3.15,3.15,0,0,0-1-.64,2.91,2.91,0,0,0-1.13-.21,3.11,3.11,0,0,0-2.1.85Z"/><path class="cls-1" d="M12.09,1a1.58,1.58,0,0,0-.36.56,1.61,1.61,0,0,0-.13.65l.14,10.21a1.85,1.85,0,0,0,.14.65,1.71,1.71,0,0,0,.38.54,1.76,1.76,0,0,0,.56.37,1.82,1.82,0,0,0,.65.12L20.28,14l26.31-.36a1.62,1.62,0,0,0,.65-.14,1.87,1.87,0,0,0,.55-.38l5-5.17a1.7,1.7,0,0,0,.48-1.21,1.75,1.75,0,0,0-.51-1.2l-5.18-5A1.54,1.54,0,0,0,47,.14a1.86,1.86,0,0,0-.7-.14L20.11.43l-6.76,0a2.1,2.1,0,0,0-.66.14,2,2,0,0,0-.29.29,1.29,1.29,0,0,0-.16.17ZM45.74,3.48l3.45,3.35-3.36,3.46-23.9.32L21.84,3.8Zm-27.29.37.09,6.81-3.4,0L15,3.9Z"/></g></g></svg>