<svg xmlns="http://www.w3.org/2000/svg" viewBox="0 0 26 18"><defs><style>.cls-1{fill:#fff;}</style></defs><g id="Layer_2" data-name="Layer 2"><g id="Layer_1-2" data-name="Layer 1"><path class="cls-1" d="M26,6.34a9.76,9.76,0,0,0-1.07-4.8,3.53,3.53,0,0,0-2-1.17A96,96,0,0,0,13,0,95.36,95.36,0,0,0,3.15.36a3.51,3.51,0,0,0-1.72.86c-1.06,1-1.18,2.62-1.3,4a55.8,55.8,0,0,0,0,7.54,10.94,10.94,0,0,0,.35,2.33,3.73,3.73,0,0,0,.84,1.58,3.47,3.47,0,0,0,1.76.91,54.73,54.73,0,0,0,7.68.38c4.13.06,7.76,0,12-.33a3.39,3.39,0,0,0,1.8-.9,2.91,2.91,0,0,0,.72-1.17A12,12,0,0,0,26,11.63C26,11,26,7,26,6.34Zm-15.66,6V5.12l7,3.62C15.36,9.81,12.78,11,10.33,12.32Z"/></g></g></svg>